<svg version="1.1" xmlns="http://www.w3.org/2000/svg" viewBox="-245.75999755859374 -1046.5292236328125 3516.613134765625 1367.0412353515626"><desc>Created with Snap</desc><defs></defs><g><g><g transform="matrix(1.024,0,0,-1.024,0,0)"><g transform="matrix(1,0,0,1,0,0)"><path d="M65 62Q63 98 62 137Q62 176 61 221Q60 266 60 318Q60 371 60 436Q60 507 61 557Q62 608 66 640Q71 672 81 687Q91 702 109 702Q126 702 139 691Q152 680 154 640Q156 604 157 576Q158 548 159 520Q160 493 160 463Q160 434 160 397L160 345L374 590Q416 638 439 653Q462 669 479 669Q499 669 508 659Q518 649 518 634Q518 628 516 622Q514 616 507 605Q501 595 488 579Q475 564 453 540L314 389L533 77Q541 66 545 54Q550 42 550 31Q550 12 539 -1Q529 -13 503 -13Q482 -13 465 -2Q449 10 435 32L245 313L159 219Q158 181 157 143Q156 105 154 63Q153 39 149 26Q146 13 140 6Q134 -1 126 -3Q119 -4 109 -4Q91 -4 79 8Q67 21 65 62Z" fill="#1d8ac0" style=""></path></g><g transform="matrix(1,0,0,1,570,0)"><g transform="matrix(1.5133,0,0,1.5133,-255.271,905.7158)"><g transform="matrix(1,0,0,-1,0,0)">
<g>
	<path d="M538.1,266v-45.7c0-31.9-24.4-58.1-55.5-61.1c-4.1-21.5-22.9-37.8-45.6-37.8c-25.6,0-46.4,20.8-46.4,46.4
		c0,25.6,20.8,46.4,46.4,46.4c22.3,0,41-15.9,45.4-36.9c21.2,2.8,37.7,21,37.7,43v38H379.8c-24.5,0-48.2,10.1-65.1,27.8L206,399.6
		c-15.6,16.1-24.1,37.4-24.1,60v60.3c0,43.3,35.3,78.6,78.6,78.6h268.7c5,0,9-4,9-9V267.3C538.2,266.9,538.2,266.4,538.1,266z
		 M437,196.2c-15.7,0-28.4-12.7-28.4-28.4s12.7-28.4,28.4-28.4c15.7,0,28.4,12.7,28.4,28.4S452.7,196.2,437,196.2z M520.2,580.5
		H260.5c-33.4,0-60.6-27.2-60.6-60.6v-60.3c0-17.9,6.8-34.7,19.1-47.5l108.7-113.6c13.5-14.1,32.5-22.2,52.1-22.2h140.4V580.5z" fill="#1d8ac0" style=""></path>
	<path d="M367.6,329.1l-75.2,78.5c-0.4,0.3-0.7,0.7-1,1l-39.1,40.9c-1.6,1.7-2.5,3.9-2.5,6.2v65.9c0,5,4,9,9,9h81.5h54h66.8
		c5,0,9-4,9-9V335.3c0-5-4-9-9-9H374C371.6,326.3,369.3,327.3,367.6,329.1z M267.9,512.6v-53.3h-0.1l27.4-28.6l32,81.9H267.9z
		 M452.2,512.6H410l33.2-57.4c0.6-1,1-2.2,1.1-3.3l3.1-23.5h4.8V512.6z M452.2,410.4h-12.6v-24.6h12.6V410.4z M452.2,344.2v0.1v23.5
		h-21.6c-5,0-9,4-9,9v42.6c0,4.5,3.3,8.2,7.7,8.9l-2.5,19.5l-37.5,64.8h-42.8l-24.9-63.8L353,430l4.6,8.7c1.6,3,4.7,4.8,8,4.8
		c1.4,0,2.9-0.3,4.2-1.1c4.4-2.3,6-7.8,3.7-12.2l-18.7-35.1c-2.3-4.4-7.8-6-12.2-3.7s-6,7.8-3.7,12.2l5.6,10.5l-29.7,17.6l-6-15.4
		l69.1-72.1H452.2z" fill="#1d8ac0" style=""></path>
</g>
<desc>Created with Snap</desc><defs></defs></g></g></g><g transform="matrix(1,0,0,1,1149.1923,0)"><path d="M437 33L291 246Q277 245 262 244Q248 244 233 244Q216 244 199 244Q182 244 161 246L161 43Q161 11 145 3Q130 -4 107 -4Q95 -4 88 -3Q81 -1 76 3Q72 8 69 17Q67 26 66 42Q64 60 63 94Q62 129 61 184Q61 239 60 317Q60 396 60 502Q60 543 70 581Q80 620 106 649Q132 679 176 697Q221 715 290 715Q339 715 385 704Q432 693 468 666Q504 639 526 593Q548 547 548 478Q548 386 508 335Q469 285 400 264L534 80Q552 56 552 31Q552 11 538 -1Q525 -12 505 -12Q483 -12 467 0Q451 13 437 33ZM448 479Q448 548 406 581Q365 615 275 615Q242 615 220 609Q198 604 185 589Q172 574 166 547Q161 521 161 480Q161 451 161 412Q161 373 162 341Q185 340 213 340Q242 340 267 340Q295 340 326 343Q358 347 385 361Q412 376 430 403Q448 431 448 479Z" fill="#1d8ac0" style=""></path></g><g transform="matrix(1,0,0,1,1726.1923,0)"><path d="M479 51Q469 75 457 106Q446 138 433 173Q403 172 370 171Q337 171 303 171Q260 171 225 171Q190 171 161 172Q149 137 138 106Q127 75 117 51Q97 0 59 0Q45 0 32 9Q20 18 20 35Q20 52 26 79Q32 107 41 138Q51 170 62 203Q73 237 83 266Q93 298 111 347Q130 397 151 451Q172 505 193 557Q214 610 231 649Q235 659 241 671Q247 684 255 695Q264 706 274 714Q285 722 298 722Q311 722 322 713Q333 705 341 693Q350 681 356 668Q363 655 367 645Q383 605 403 553Q424 501 444 448Q465 395 483 347Q501 299 512 266Q521 237 532 204Q544 171 554 139Q564 107 570 79Q577 52 577 35Q577 18 564 9Q552 0 538 0Q520 0 505 12Q490 25 479 51ZM302 271Q326 271 350 270Q374 270 398 269Q386 304 374 339Q362 374 351 406Q341 438 332 465Q324 493 318 514Q314 527 309 535Q304 543 296 543Q288 543 283 534Q278 526 274 513Q262 472 240 406Q219 341 195 269Q222 270 249 270Q276 271 302 271Z" fill="#1d8ac0" style=""></path></g><g transform="matrix(1,0,0,1,2323.1923,0)"><path d="M456 47Q424 91 395 134Q367 178 334 230Q302 282 260 345Q219 409 161 494Q161 419 161 359Q161 300 160 249Q159 198 158 153Q157 108 155 63Q154 39 150 26Q147 13 141 6Q135 -1 127 -3Q120 -4 110 -4Q92 -4 80 8Q68 21 66 62Q61 172 60 282Q60 393 60 511Q60 578 61 616Q63 654 68 673Q74 692 83 697Q93 702 109 702Q125 702 151 677Q177 653 208 613Q239 573 274 521Q310 469 345 414Q380 359 412 305Q445 251 472 207Q471 254 471 310Q471 367 471 436Q471 515 472 566Q473 618 477 648Q482 678 492 690Q502 702 520 702Q537 702 550 691Q563 680 565 640Q567 604 568 576Q569 548 570 520Q571 493 571 463Q571 434 571 397Q571 352 571 311Q571 270 570 230Q569 190 568 149Q567 108 565 63Q564 39 560 26Q557 13 551 6Q545 -1 537 -3Q530 -4 520 -4Q503 -4 491 6Q479 16 456 47Z" fill="#1d8ac0" style=""></path></g></g></g></g></svg>