<svg version="1.1" xmlns="http://www.w3.org/2000/svg" viewBox="-228.2 -883.2 3289.54599609375 1194.4130615234376"><desc>Created with Snap</desc><defs></defs><g><g><g transform="matrix(1,0,0,-1,0,0)"><g transform="matrix(1,0,0,1,0,0)"><path d="M298 330L515 56Q524 45 524 30Q524 16 514 6Q504 -4 487 -4Q470 -4 458 10L247 280L154 186L154 33Q154 18 143 7Q132 -4 116 -4Q101 -4 90 7Q79 18 79 33L79 538Q79 553 90 564Q101 576 116 576Q131 576 142 565Q154 554 154 538L154 278L434 562Q444 575 460 575Q477 576 487 566Q497 557 497 541Q497 526 487 518L298 330Z" fill="#1a283f" style=""></path></g><g transform="matrix(1,0,0,1,548,0)"><g transform="matrix(1.2157,0,0,1.2157,-199.1318,723.5834)"><g transform="matrix(1,0,0,-1,0,0)">
<g>
	<path d="M538.1,266v-45.7c0-31.9-24.4-58.1-55.5-61.1c-4.1-21.5-22.9-37.8-45.6-37.8c-25.6,0-46.4,20.8-46.4,46.4
		c0,25.6,20.8,46.4,46.4,46.4c22.3,0,41-15.9,45.4-36.9c21.2,2.8,37.7,21,37.7,43v38H379.8c-24.5,0-48.2,10.1-65.1,27.8L206,399.6
		c-15.6,16.1-24.1,37.4-24.1,60v60.3c0,43.3,35.3,78.6,78.6,78.6h268.7c5,0,9-4,9-9V267.3C538.2,266.9,538.2,266.4,538.1,266z
		 M437,196.2c-15.7,0-28.4-12.7-28.4-28.4s12.7-28.4,28.4-28.4c15.7,0,28.4,12.7,28.4,28.4S452.7,196.2,437,196.2z M520.2,580.5
		H260.5c-33.4,0-60.6-27.2-60.6-60.6v-60.3c0-17.9,6.8-34.7,19.1-47.5l108.7-113.6c13.5-14.1,32.5-22.2,52.1-22.2h140.4V580.5z" fill="#1a283f" style=""></path>
	<path d="M367.6,329.1l-75.2,78.5c-0.4,0.3-0.7,0.7-1,1l-39.1,40.9c-1.6,1.7-2.5,3.9-2.5,6.2v65.9c0,5,4,9,9,9h81.5h54h66.8
		c5,0,9-4,9-9V335.3c0-5-4-9-9-9H374C371.6,326.3,369.3,327.3,367.6,329.1z M267.9,512.6v-53.3h-0.1l27.4-28.6l32,81.9H267.9z
		 M452.2,512.6H410l33.2-57.4c0.6-1,1-2.2,1.1-3.3l3.1-23.5h4.8V512.6z M452.2,410.4h-12.6v-24.6h12.6V410.4z M452.2,344.2v0.1v23.5
		h-21.6c-5,0-9,4-9,9v42.6c0,4.5,3.3,8.2,7.7,8.9l-2.5,19.5l-37.5,64.8h-42.8l-24.9-63.8L353,430l4.6,8.7c1.6,3,4.7,4.8,8,4.8
		c1.4,0,2.9-0.3,4.2-1.1c4.4-2.3,6-7.8,3.7-12.2l-18.7-35.1c-2.3-4.4-7.8-6-12.2-3.7s-6,7.8-3.7,12.2l5.6,10.5l-29.7,17.6l-6-15.4
		l69.1-72.1H452.2z" fill="#1a283f" style=""></path>
</g>
<desc>Created with Snap</desc><defs></defs></g></g></g><g transform="matrix(1,0,0,1,1023.1461,0)"><path d="M525 70L525 33Q525 18 514 7Q504 -4 487 -4Q471 -4 460 6Q450 16 450 33L450 58Q450 124 435 155Q421 186 395 204Q370 223 323 223L154 223L154 33Q154 18 143 7Q132 -4 116 -4Q101 -4 90 7Q79 18 79 33L79 534Q79 549 90 560Q101 572 116 572L307 572Q419 572 477 524Q531 479 530 406Q530 359 503 317Q477 276 422 258Q481 243 508 172Q526 126 525 70ZM154 294L302 294Q371 294 413 320Q455 347 455 400Q455 449 422 474Q383 502 298 502L154 502L154 294Z" fill="#1a283f" style=""></path></g><g transform="matrix(1,0,0,1,1606.1461,0)"><path d="M338 542L546 49Q550 39 550 28Q550 18 540 7Q531 -4 509 -4Q488 -4 478 19L425 146L146 146L94 19Q84 -4 62 -4Q41 -4 31 7Q22 18 22 28Q22 39 26 49L234 542Q248 576 282 576L290 576Q323 576 338 542ZM175 214L397 214L286 481L175 214Z" fill="#1a283f" style=""></path></g><g transform="matrix(1,0,0,1,2176.1461,0)"><path d="M541 576Q556 576 567 565Q578 554 578 538L578 49Q578 27 562 11Q546 -4 524 -4L514 -4Q487 -4 471 18L154 476L154 33Q154 18 143 7Q132 -4 116 -4Q101 -4 90 7Q79 18 79 33L79 522Q79 544 94 560Q110 576 133 576L143 576Q169 576 189 551L504 96L504 538Q504 553 515 564Q526 576 541 576Z" fill="#1a283f" style=""></path></g></g></g></g></svg>